<svg xmlns="http://www.w3.org/2000/svg" width="19.5" height="19.105" viewBox="0 0 19.5 19.105">
  <path id="home" d="M12.69,4.36a1.255,1.255,0,0,0-1.39,0l-7,4.66a1.242,1.242,0,0,0-.56,1.04v8.92a1.244,1.244,0,0,0,1.25,1.25H8.24V15.98a2.748,2.748,0,0,1,2.75-2.75h2a2.755,2.755,0,0,1,2.75,2.75v4.25h3.25a1.25,1.25,0,0,0,1.25-1.25V10.05A1.273,1.273,0,0,0,19.68,9l-1.11-.74a.756.756,0,0,1-.21-1.05A.743.743,0,0,1,19.4,7l1.1.73a2.743,2.743,0,0,1,1.22,2.28v8.92a2.761,2.761,0,0,1-2.75,2.75h-4a.749.749,0,0,1-.75-.75v-5a1.244,1.244,0,0,0-1.25-1.25h-2a1.238,1.238,0,0,0-1.25,1.25v5a.755.755,0,0,1-.75.75h-4a2.755,2.755,0,0,1-2.75-2.75V10A2.736,2.736,0,0,1,3.44,7.71l7-4.67a2.733,2.733,0,0,1,3.05,0L15.38,4.3a.749.749,0,1,1-.84,1.24l-1.9-1.27Z" transform="translate(-2.22 -2.575)" fill="#eaebec" fill-rule="evenodd"/>
</svg>
