<svg xmlns="http://www.w3.org/2000/svg" width="17.235" height="18.142" viewBox="0 0 17.235 18.142">
  <path id="Login" d="M10.955,2h4.6a4.111,4.111,0,0,1,4.184,4.025v6.907a.727.727,0,0,1-1.453,0V6.025A2.684,2.684,0,0,0,15.551,3.4h-4.6A2.694,2.694,0,0,0,8.214,6.034v.845a.727.727,0,0,1-1.452,0V6.034A4.121,4.121,0,0,1,10.955,2Zm1.606,7.583a.692.692,0,0,1-.983.005l-.664-.659a.7.7,0,0,1-.005-.988.692.692,0,0,1,.983-.005l.665.66A.7.7,0,0,1,12.561,9.583ZM10.91,14.2a.7.7,0,0,1,0-.988l1.444-1.445H3.2a.7.7,0,0,1,0-1.4H14.04a.7.7,0,0,1,.643.433.7.7,0,0,1-.152.762L11.893,14.2a.694.694,0,0,1-.983,0Zm8.1,1.207a.713.713,0,0,0-.726.7,2.694,2.694,0,0,1-2.741,2.637h-4.6a2.685,2.685,0,0,1-2.731-2.628v-.854a.727.727,0,0,0-1.452,0v.854a4.111,4.111,0,0,0,4.183,4.025h4.6a4.121,4.121,0,0,0,4.194-4.034A.713.713,0,0,0,19.009,15.41Z" transform="translate(-2.5 -2)" fill="#eaebec" fill-rule="evenodd"/>
</svg>
