<svg xmlns="http://www.w3.org/2000/svg" width="27.52" height="7.145" viewBox="0 0 27.52 7.145">
  <g id="more" transform="translate(-5.23 -10.24)">
    <path id="Path_43" data-name="Path 43" d="M19.321,13.812a.517.517,0,0,0-.509-.509.5.5,0,0,0-.509.509.517.517,0,0,0,.509.509A.531.531,0,0,0,19.321,13.812Zm-.509-3.562a3.562,3.562,0,1,1-3.562,3.562A3.566,3.566,0,0,1,18.812,10.25Z" transform="translate(10.376 0.01)" fill="#eaebec" fill-rule="evenodd"/>
    <path id="Path_44" data-name="Path 44" d="M14.321,13.812a.517.517,0,0,0-.509-.509.5.5,0,0,0-.509.509.517.517,0,0,0,.509.509A.531.531,0,0,0,14.321,13.812Zm-.509-3.562a3.562,3.562,0,1,1-3.562,3.562A3.566,3.566,0,0,1,13.812,10.25Z" transform="translate(5.198 0.01)" fill="#eaebec" fill-rule="evenodd"/>
    <path id="Path_45" data-name="Path 45" d="M9.281,16.326a1.512,1.512,0,0,0,2.137-.081,3.715,3.715,0,0,0,.936-2.443,3.562,3.562,0,1,0-7.124,0,1.527,1.527,0,0,0,3.053,0,.5.5,0,0,1,.509-.509A.517.517,0,0,1,9.3,13.8a.48.48,0,0,1-.142.326,1.494,1.494,0,0,0,.061,2.137Z" transform="translate(0 0)" fill="#eaebec" fill-rule="evenodd"/>
  </g>
</svg>
