<svg xmlns="http://www.w3.org/2000/svg" xmlns:xlink="http://www.w3.org/1999/xlink" width="17.925" height="17.811" viewBox="0 0 17.925 17.811">
  <defs>
    <clipPath id="clip-path">
      <rect id="Rectangle_32" data-name="Rectangle 32" width="17.925" height="17.811" fill="#eaebec"/>
    </clipPath>
  </defs>
  <g id="Group_13" data-name="Group 13" transform="translate(-78.141)">
    <g id="Group_12" data-name="Group 12" transform="translate(78.141)" clip-path="url(#clip-path)">
      <path id="Path_16" data-name="Path 16" d="M8.06,4.157a15.829,15.829,0,0,1-.009,1.624,2.621,2.621,0,0,1-2.524,2.4c-.976.045-1.958.046-2.934,0A2.688,2.688,0,0,1,.018,5.46c-.023-.9-.026-1.808,0-2.711A2.736,2.736,0,0,1,2.853.012q1.2-.01,2.39,0a2.741,2.741,0,0,1,2.845,2.81c.008.445,0,.89,0,1.335ZM6.632,4.121c0-.458.012-.917,0-1.374A1.253,1.253,0,0,0,5.342,1.487c-.865-.012-1.731-.011-2.6,0a1.232,1.232,0,0,0-1.295,1.2c-.037.956-.036,1.916,0,2.873a1.213,1.213,0,0,0,1.26,1.192q1.319.019,2.638,0A1.243,1.243,0,0,0,6.629,5.5c.014-.458,0-.916,0-1.374" transform="translate(0 -0.007)" fill="#eaebec"/>
      <path id="Path_17" data-name="Path 17" d="M117.3,119.09c0-.528-.035-1.058.007-1.583a2.629,2.629,0,0,1,2.509-2.461c.989-.048,1.985-.05,2.974,0a2.678,2.678,0,0,1,2.549,2.7c.028.916.031,1.835,0,2.751a2.73,2.73,0,0,1-2.808,2.716c-.824.01-1.649.012-2.473,0a2.716,2.716,0,0,1-2.767-2.664c-.024-.485,0-.972,0-1.459h.014m6.586.053c0-.472.014-.944,0-1.416a1.239,1.239,0,0,0-1.262-1.237q-1.318-.023-2.638,0a1.234,1.234,0,0,0-1.253,1.245q-.026,1.374,0,2.748a1.232,1.232,0,0,0,1.283,1.255q1.3.018,2.6,0a1.237,1.237,0,0,0,1.276-1.264c.013-.444,0-.888,0-1.333" transform="translate(-107.44 -105.41)" fill="#eaebec"/>
      <path id="Path_18" data-name="Path 18" d="M8.134,118.587c0,.639.01,1.279,0,1.918a2.714,2.714,0,0,1-2.842,2.8q-1.174.01-2.348,0a2.78,2.78,0,0,1-2.869-2.842q-.02-1.272,0-2.544a2.717,2.717,0,0,1,2.814-2.788c.349,0,.7-.015,1.048,0a.73.73,0,1,1-.032,1.459c-.377.008-.755-.009-1.132,0a1.239,1.239,0,0,0-1.242,1.218q-.036,1.375,0,2.752A1.237,1.237,0,0,0,2.754,121.8c.907.031,1.817.03,2.725,0a1.242,1.242,0,0,0,1.242-1.349c.014-1.293.007-2.586,0-3.878,0-.568.272-.919.737-.9s.7.365.688.911c-.014.667,0,1.334,0,2H8.134" transform="translate(-0.058 -105.514)" fill="#eaebec"/>
      <path id="Path_19" data-name="Path 19" d="M118.695,4.714c0,.626,0,1.251,0,1.877,0,.566-.263.89-.71.9s-.728-.3-.73-.87c-.005-1.279-.017-2.558,0-3.837a2.705,2.705,0,0,1,2.819-2.78c.8-.006,1.593-.008,2.39,0a2.746,2.746,0,0,1,2.822,2.668c.046.985.047,1.975,0,2.96a2.679,2.679,0,0,1-2.747,2.588c-.252,0-.5,0-.755,0-.557,0-.879-.269-.885-.724s.324-.741.906-.745c.266,0,.531.007.8,0a1.231,1.231,0,0,0,1.248-1.208q.035-1.417,0-2.836a1.238,1.238,0,0,0-1.237-1.224q-1.341-.029-2.683,0A1.231,1.231,0,0,0,118.7,2.712c-.019.667,0,1.334,0,2h0" transform="translate(-107.406 0)" fill="#eaebec"/>
    </g>
  </g>
</svg>
