<svg xmlns="http://www.w3.org/2000/svg" width="31.663" height="10.613" viewBox="0 0 31.663 10.613">
  <g id="race-car-2-svgrepo-com" transform="translate(0 -170.192)">
    <path id="Path_1" data-name="Path 1" d="M16.5,237.509a3.225,3.225,0,1,0,3.225,3.225A3.225,3.225,0,0,0,16.5,237.509Zm0,4.925a1.7,1.7,0,1,1,1.7-1.7A1.7,1.7,0,0,1,16.5,242.435Z" transform="translate(-12.454 -63.154)" fill="#eaebec"/>
    <path id="Path_2" data-name="Path 2" d="M57.422,281.121a.528.528,0,1,0,.528.528A.528.528,0,0,0,57.422,281.121Z" transform="translate(-53.377 -104.069)" fill="#eaebec"/>
    <path id="Path_3" data-name="Path 3" d="M107.111,173.888c-2.4-.36-4.862-.585-6.862-.725a1.385,1.385,0,0,1-1.186,1.191H95.9v-4.163a11.976,11.976,0,0,0-7.679,3.974,3.69,3.69,0,0,1,2.147,4.411h13.293a3.691,3.691,0,0,1,3.455-4.689Z" transform="translate(-82.762)" fill="#eaebec"/>
    <path id="Path_4" data-name="Path 4" d="M4.045,185.454c.117,0,.233.006.347.016l.65-.9v-2.051H0v5.16l.541.3A3.7,3.7,0,0,1,4.045,185.454Z" transform="translate(0 -11.568)" fill="#eaebec"/>
    <path id="Path_5" data-name="Path 5" d="M419.258,236.847v-.586l1.114-.586a5.061,5.061,0,0,0,.206-1.152,36.5,36.5,0,0,0-4.684-.97,3.689,3.689,0,0,1,2.287,4.467h3.656v-1.173Z" transform="translate(-390.175 -59.443)" fill="#eaebec"/>
    <path id="Path_6" data-name="Path 6" d="M346.455,237.509a3.225,3.225,0,1,0,3.225,3.225A3.225,3.225,0,0,0,346.455,237.509Zm0,4.925a1.7,1.7,0,1,1,1.7-1.7A1.7,1.7,0,0,1,346.455,242.435Z" transform="translate(-322.004 -63.154)" fill="#eaebec"/>
    <path id="Path_7" data-name="Path 7" d="M387.37,281.121a.528.528,0,1,0,.527.528A.528.528,0,0,0,387.37,281.121Z" transform="translate(-362.919 -104.069)" fill="#eaebec"/>
  </g>
</svg>
