<svg xmlns="http://www.w3.org/2000/svg" width="33.862" height="33.862" viewBox="0 0 33.862 33.862">
  <path id="phone-flip-svgrepo-com" d="M34.862,7.425A27.436,27.436,0,0,1,7.425,34.862q-1.025,0-2.033-.074A3.46,3.46,0,0,1,3.887,34.5a1.876,1.876,0,0,1-.711-.765A3.869,3.869,0,0,1,3,32.1V27.11a4.035,4.035,0,0,1,.118-1.378,1.77,1.77,0,0,1,.491-.7,4.036,4.036,0,0,1,1.255-.582l5.676-2.064a4.177,4.177,0,0,1,1.543-.4,1.77,1.77,0,0,1,.909.322,4.171,4.171,0,0,1,.945,1.284l1.454,2.423A21.42,21.42,0,0,0,26.011,15.391l-2.423-1.454a4.171,4.171,0,0,1-1.284-.945,1.77,1.77,0,0,1-.322-.909,4.177,4.177,0,0,1,.4-1.543h0l2.064-5.676a4.036,4.036,0,0,1,.582-1.255,1.77,1.77,0,0,1,.7-.491A4.035,4.035,0,0,1,27.11,3H32.1a3.869,3.869,0,0,1,1.639.176,1.876,1.876,0,0,1,.765.711,3.46,3.46,0,0,1,.286,1.506Q34.861,6.4,34.862,7.425Z" transform="translate(-2 -2)" fill="none" stroke="#c38065" stroke-linecap="round" stroke-linejoin="round" stroke-width="2"/>
</svg>
