<svg xmlns="http://www.w3.org/2000/svg" width="7.758" height="7.758" viewBox="0 0 7.758 7.758">
  <g id="instagram-svgrepo-com" transform="translate(-1 -1)">
    <path id="Path_6" data-name="Path 6" d="M8.116,10.232A2.116,2.116,0,1,0,6,8.116,2.116,2.116,0,0,0,8.116,10.232Zm0-.705A1.411,1.411,0,1,0,6.705,8.116,1.411,1.411,0,0,0,8.116,9.527Z" transform="translate(-3.237 -3.237)" fill="#c38065" fill-rule="evenodd"/>
    <path id="Path_7" data-name="Path 7" d="M17.353,5a.353.353,0,1,0,.353.353A.353.353,0,0,0,17.353,5Z" transform="translate(-10.358 -2.589)" fill="#c38065"/>
    <path id="Path_8" data-name="Path 8" d="M1.231,2.155A5.257,5.257,0,0,0,1,4.385v.987A5.257,5.257,0,0,0,1.231,7.6a2.116,2.116,0,0,0,.925.925,5.256,5.256,0,0,0,2.23.231h.987A5.256,5.256,0,0,0,7.6,8.528,2.116,2.116,0,0,0,8.528,7.6a5.256,5.256,0,0,0,.231-2.23V4.385a5.256,5.256,0,0,0-.231-2.23A2.116,2.116,0,0,0,7.6,1.231,5.257,5.257,0,0,0,5.373,1H4.385a5.257,5.257,0,0,0-2.23.231A2.116,2.116,0,0,0,1.231,2.155Zm4.142-.45H4.385c-.6,0-1.015,0-1.332.026a1.522,1.522,0,0,0-.578.127,1.411,1.411,0,0,0-.616.616,1.522,1.522,0,0,0-.127.578c-.026.317-.026.728-.026,1.332v.987c0,.6,0,1.015.026,1.332a1.522,1.522,0,0,0,.127.578,1.411,1.411,0,0,0,.616.616,1.522,1.522,0,0,0,.578.127c.317.026.728.026,1.332.026h.987c.6,0,1.015,0,1.332-.026A1.522,1.522,0,0,0,7.283,7.9,1.411,1.411,0,0,0,7.9,7.283a1.522,1.522,0,0,0,.127-.578c.026-.317.026-.728.026-1.332V4.385c0-.6,0-1.015-.026-1.332A1.522,1.522,0,0,0,7.9,2.476a1.411,1.411,0,0,0-.616-.616,1.522,1.522,0,0,0-.578-.127C6.388,1.706,5.977,1.705,5.373,1.705Z" fill="#c38065" fill-rule="evenodd"/>
  </g>
</svg>
